<svg width="401" height="80" viewBox="0 0 401 80" fill="none" xmlns="http://www.w3.org/2000/svg">
<mask id="mask0_4538_27909" style="mask-type:alpha" maskUnits="userSpaceOnUse" x="0" y="0" width="401" height="80">
<rect x="401" y="80" width="401" height="80" transform="rotate(-180 401 80)" fill="#19398A"/>
</mask>
<g mask="url(#mask0_4538_27909)">
<mask id="mask1_4538_27909" style="mask-type:alpha" maskUnits="userSpaceOnUse" x="-1039" y="0" width="1440" height="81">
<rect x="401" y="80.002" width="1440" height="80" transform="rotate(-180 401 80.002)" fill="#19398A"/>
</mask>
<g mask="url(#mask1_4538_27909)">
<path opacity="0.1" d="M-536.937 428.236C-536.937 428.236 -536.766 428.27 -536.659 428.279L-536.521 425.526C-536.283 425.534 -536.045 425.541 -535.829 425.557L-536.18 422.951C-535.808 422.904 -535.436 422.857 -535.072 422.788L-535.809 420.519C-535.329 420.351 -534.862 420.213 -534.382 420.045L-535.369 418.189C-534.836 417.895 -534.293 417.623 -533.76 417.33L-534.826 415.921C-534.261 415.511 -533.697 415.1 -533.132 414.69L-534.122 413.665C-533.58 413.134 -533.029 412.626 -532.487 412.095L-533.341 411.404C-532.835 410.784 -532.298 410.178 -531.792 409.558L-532.47 409.107C-531.992 408.42 -531.513 407.734 -531.034 407.047L-531.542 406.76C-446.656 260.236 -357.401 185.963 -275.4 152.741C-191.089 118.584 -114.803 128.02 -59.8409 145.966C-57.1595 146.85 -54.5545 147.739 -51.9628 148.659C-27.2064 113.247 0.234754 84.655 26.3149 62.1107C83.0855 13.0024 133.443 -7.73606 136.201 -8.85344L136.313 -8.8988C136.537 -8.98964 187.214 -29.2614 258.62 -37.8637C294.312 -42.1603 335.207 -43.5352 377.575 -37.988C393.513 -35.8892 409.673 -32.7914 425.836 -28.5278C437.822 -27.6797 449.822 -26.3449 461.738 -24.3797C473.613 -24.9646 485.4 -25.1246 496.98 -24.7606C508.955 -27.2266 520.652 -29.3467 531.981 -31.0848C543.798 -36.1313 555.134 -41.0093 565.767 -45.628L566.529 -45.9369C571.445 -49.7175 576.253 -53.5063 580.823 -57.3024L581.894 -58.2029L583.277 -58.2703L583.321 -58.2885C583.658 -58.2952 585.247 -58.3685 588.096 -58.6155C590.877 -61.9976 593.585 -65.4282 596.177 -68.8894L596.92 -69.8905L598.104 -70.3183C598.104 -70.3183 601.566 -71.5655 608.397 -73.97C609.573 -76.1575 610.717 -78.3583 611.83 -80.5722L612.246 -81.4148L612.976 -81.9959C612.976 -81.9959 617.803 -85.7401 627.48 -91.9424C627.525 -92.0901 627.601 -92.2246 627.645 -92.3723L627.855 -92.9499L628.231 -93.4393C628.365 -93.6234 635.182 -102.893 650.087 -116.554C654.868 -124.532 662.564 -135.946 673.898 -148.886C695.351 -173.316 729.819 -202.991 781.75 -224.031C847.047 -250.485 939.822 -263.233 1068.72 -235.339L1066.92 -227.274C1066.92 -227.274 1066.75 -227.309 1066.64 -227.317L1066.51 -224.565C1066.27 -224.572 1066.03 -224.579 1065.82 -224.596L1066.17 -221.99C1065.79 -221.943 1065.42 -221.895 1065.06 -221.826L1065.79 -219.557C1065.31 -219.389 1064.85 -219.252 1064.37 -219.083L1065.35 -217.228C1064.82 -216.934 1064.28 -216.662 1063.75 -216.368L1064.81 -214.959C1064.25 -214.549 1063.68 -214.139 1063.12 -213.729L1064.11 -212.703C1063.57 -212.173 1063.01 -211.664 1062.47 -211.134L1063.33 -210.443C1062.82 -209.823 1062.28 -209.216 1061.78 -208.596L1062.46 -208.145C1061.98 -207.459 1061.5 -206.772 1061.02 -206.086L1061.53 -205.799C976.705 -59.2477 887.427 15.0344 805.426 48.256C721.115 82.4134 644.829 72.9771 589.867 55.0312C587.186 54.1471 584.581 53.258 581.989 52.3376C557.223 87.7275 529.782 116.32 503.711 138.886C446.941 187.995 396.584 208.733 393.826 209.85L393.736 209.887C393.489 209.987 342.812 230.258 271.429 238.852C235.737 243.148 194.842 244.523 152.473 238.976C136.535 236.877 120.384 233.802 104.213 229.516C92.2268 228.668 80.2266 227.333 68.3103 225.368C56.4352 225.953 44.6489 226.113 33.0681 225.749C21.0937 228.215 9.39682 230.335 -1.93276 232.073C-13.7492 237.119 -25.0856 241.997 -35.718 246.616L-36.4803 246.925C-41.3963 250.705 -46.2044 254.494 -50.7747 258.29L-51.8457 259.191L-53.2505 259.267L-53.2954 259.286C-53.632 259.292 -55.2205 259.365 -58.0701 259.612C-60.8504 262.995 -63.5589 266.425 -66.1505 269.886L-66.8933 270.887L-68.0774 271.315C-68.0774 271.315 -71.5399 272.562 -78.3707 274.967C-79.5467 277.155 -80.691 279.355 -81.8041 281.569L-82.2288 282.389L-82.9592 282.971C-82.9592 282.971 -87.7854 286.715 -97.463 292.917C-97.5076 293.065 -97.5746 293.222 -97.6282 293.347L-97.838 293.925L-98.214 294.414C-98.3482 294.598 -105.165 303.867 -120.07 317.528C-124.851 325.507 -132.547 336.921 -143.881 349.861C-165.334 374.29 -199.802 403.966 -251.734 425.006C-317.03 451.459 -409.805 464.208 -538.702 436.314L-536.906 428.249L-536.937 428.236ZM-126.589 312.262C-125.873 311.064 -125.251 309.957 -124.692 308.953C-144.934 320.135 -172.819 333.973 -208.898 348.59C-276.772 376.088 -373.614 406.248 -503.031 426.426C-389.333 427.498 -304.284 407.535 -242.62 382.553C-192.975 362.44 -158.481 339.079 -136.423 320.783C-132.807 317.788 -129.55 314.939 -126.575 312.23L-126.589 312.262ZM-80.8252 262.272C-82.3284 262.492 -83.9079 262.717 -85.5322 262.96C-86.5509 265.214 -87.5383 267.481 -88.5165 269.77C-86.9646 269.219 -85.5024 268.704 -84.1524 268.235C-83.0569 266.235 -81.9612 264.236 -80.8252 262.272ZM362.307 178.829L362.419 178.784C365.154 177.675 414.937 157.195 472.266 113.331C498.052 93.603 525.331 69.1211 550.593 39.5968C545.476 37.2105 540.736 34.8529 536.35 32.5331C508.573 59.3946 478.97 82.0699 451.329 100.632C391.819 140.531 341.341 161.292 337.372 162.9L337.148 162.991C337.013 163.046 286.619 183.177 218.616 200.694C185.563 209.184 148.366 217.046 110.727 221.691C117.159 222.041 123.601 222.283 130.024 222.351C189.829 223.064 247.989 212.18 291.14 201.102C312.731 195.569 330.543 189.986 342.963 185.785C349.161 183.688 354.041 181.945 357.328 180.716C358.983 180.098 360.226 179.62 361.087 179.297C361.513 179.125 361.827 178.998 362.029 178.916C362.23 178.834 362.342 178.789 362.342 178.789L362.307 178.829ZM656.503 -111.219C655.787 -110.022 655.165 -108.914 654.606 -107.91C674.848 -119.092 702.733 -132.93 738.789 -147.538C806.664 -175.037 903.506 -205.196 1032.92 -225.374C919.225 -226.447 834.175 -206.483 772.512 -181.501C722.867 -161.388 688.373 -138.028 666.314 -119.732C662.699 -116.737 659.441 -113.888 656.467 -111.179L656.503 -111.219ZM610.739 -61.2295C612.243 -61.4495 613.822 -61.6746 615.446 -61.9178C616.465 -64.1713 617.452 -66.438 618.43 -68.727C616.879 -68.1761 615.416 -67.6615 614.066 -67.1924C612.971 -65.1929 611.875 -63.1935 610.739 -61.2295ZM166.087 18.3958L167.54 22.2406L167.495 22.2587C164.76 23.367 114.976 43.8471 57.6474 87.7111C31.8621 107.439 4.5832 131.921 -20.6791 161.446C-15.5618 163.832 -10.8217 166.19 -6.43626 168.509C21.3405 141.648 50.9439 118.973 78.5853 100.411C138.095 60.5118 188.573 39.7502 192.542 38.1422L192.789 38.0422C192.901 37.9968 243.286 17.8432 311.298 0.348724C344.351 -8.14195 381.548 -16.004 419.187 -20.6487C412.755 -20.9983 406.313 -21.2407 399.89 -21.309C340.085 -22.0217 281.925 -11.1372 238.774 -0.0592166C217.183 5.47317 199.371 11.0559 186.951 15.2579C180.753 17.3544 175.873 19.0979 172.586 20.3261C170.931 20.9447 169.688 21.4221 168.827 21.745C168.401 21.9176 168.087 22.0448 167.886 22.1266C167.684 22.2084 167.572 22.2538 167.572 22.2538L166.029 18.4454L166.087 18.3958ZM-120 296.888C-119.278 294.159 -118.579 291.438 -117.818 288.744C-182.776 311.328 -311.147 355.35 -501.025 417.783C-373.861 397.714 -278.67 367.99 -211.961 340.964C-170.703 324.248 -140.348 308.58 -119.987 296.857L-120 296.888ZM-98.9981 273.472C-97.788 270.466 -96.5463 267.474 -95.2642 264.518C-97.4403 264.881 -99.7153 265.258 -102.071 265.694C-103.186 268.998 -104.292 272.324 -105.349 275.707C-103.586 275.097 -101.9 274.492 -100.272 273.936C-99.8457 273.763 -99.4242 273.644 -99.0115 273.503L-98.9981 273.472ZM334.062 155.374L334.264 155.292C337.874 153.83 387.913 133.272 446.714 93.8157C473.446 75.9077 501.929 54.0752 528.738 28.4352C523.98 25.774 519.76 23.2834 516.16 21.0343C486.441 44.0677 455.145 64.2397 426.113 81.1092C365.467 116.335 314.8 137.147 309.351 139.355C309.037 139.482 308.881 139.545 308.881 139.545C308.813 139.573 258.576 159.64 192.26 181.581C158.28 192.807 120.108 204.512 82.2775 214.29C83.9124 214.846 85.5474 215.403 87.1957 215.927C131.847 212.097 177.197 202.903 216.597 192.748C250.328 184.061 279.743 174.71 300.698 167.543C311.171 163.948 319.549 160.917 325.285 158.775C328.16 157.688 330.353 156.851 331.864 156.265C333.353 155.687 334.116 155.378 334.116 155.378L334.062 155.374ZM649.946 -95.8326C649.224 -93.1032 648.525 -90.3828 647.763 -87.6888C712.722 -110.272 841.093 -154.294 1030.97 -216.727C903.797 -196.681 808.638 -166.943 741.929 -139.917C700.67 -123.202 670.317 -107.534 649.955 -95.8103L649.946 -95.8326ZM717.911 -103.197C687.789 -92.8857 663.479 -84.463 644.947 -78.0178C643.756 -74.0613 642.539 -70.1717 641.25 -66.3308C691.478 -75.7905 772.918 -96.1583 880.325 -139.673C925.104 -157.814 974.407 -179.993 1027.83 -207.081C892.714 -162.634 789.168 -127.632 717.925 -103.228L717.911 -103.197ZM628.944 -72.4159C627.733 -69.4107 626.469 -66.4096 625.21 -63.4622C627.386 -63.8253 629.661 -64.2024 632.016 -64.6381C633.131 -67.9419 634.238 -71.268 635.294 -74.6518C633.532 -74.0414 631.845 -73.436 630.217 -72.8801C629.791 -72.7075 629.37 -72.5885 628.957 -72.4472L628.944 -72.4159ZM194.341 41.8729L195.839 45.6995L195.816 45.7086L195.682 45.7632C192.072 47.2257 142.033 67.7834 83.2314 107.24C56.4998 125.148 28.017 146.98 1.20711 172.62C5.96584 175.282 10.1854 177.772 13.7853 180.021C43.5045 156.988 74.8008 136.816 103.833 119.946C164.479 84.7206 215.145 63.9085 220.594 61.701C220.886 61.5829 221.042 61.5194 221.065 61.5103C221.065 61.5103 271.369 41.4154 337.685 19.4748C371.666 8.24884 409.838 -3.45661 447.668 -13.2346C446.033 -13.7908 444.407 -14.3248 442.75 -14.8719C398.098 -11.0418 352.749 -1.84724 313.348 8.30763C279.618 16.9949 250.202 26.3454 229.247 33.5127C218.775 37.1075 210.396 40.1388 204.66 42.2812C201.785 43.3681 199.593 44.2047 198.081 44.7911C196.592 45.3684 195.83 45.6772 195.83 45.6772L194.287 41.8688L194.341 41.8729ZM-93.6828 222.031C-95.2584 221.943 -96.8116 221.846 -98.4321 221.777C-145.174 219.739 -211.19 225.794 -289.895 257.681C-349.899 281.991 -417.301 321.353 -489.125 383.69C-423.175 339.263 -362.279 307.877 -307.97 285.875C-218.591 249.664 -147.064 238.783 -99.9141 236.482C-97.9 231.595 -95.8274 226.789 -93.6962 222.062L-93.6828 222.031ZM-304.861 293.482C-361.144 316.284 -424.667 349.305 -493.716 396.777C-443.131 371.383 -396.266 350.4 -353.483 333.067C-242.264 288.008 -158.589 267.616 -108.275 258.433C-106.665 253.839 -104.995 249.326 -103.276 244.87C-149.578 247.528 -218.779 258.607 -304.884 293.492L-304.861 293.482ZM-292.968 250.032C-211.818 217.156 -143.67 211.274 -95.7514 213.639C-93.7538 213.737 -91.8683 213.881 -89.947 213.984C-87.5651 208.974 -85.1292 204.098 -82.6436 199.28C-84.013 199.057 -85.3734 198.856 -86.7428 198.633C-135.313 191.502 -203.095 192.491 -281.8 224.378C-343.733 249.469 -412.466 293.727 -483.919 368.384C-415.411 310.683 -350.873 273.466 -292.954 250.001L-292.968 250.032ZM-81.1261 214.688C-77.3058 215.033 -73.6514 215.419 -70.163 215.847C-67.5911 211.564 -64.9292 207.374 -62.2402 203.251C-66.0302 202.401 -69.9725 201.562 -74.0945 200.794C-76.4819 205.339 -78.8333 209.974 -81.0947 214.701L-81.1261 214.688ZM-61.2331 217.077C-57.8164 217.586 -54.5654 218.135 -51.5212 218.691C-48.7816 215.144 -46.0151 211.664 -43.1766 208.232C-46.5001 207.245 -50.0075 206.255 -53.7573 205.311C-56.2942 209.165 -58.7952 213.108 -61.2331 217.077ZM-37.4008 201.355C-34.4053 197.86 -31.3604 194.422 -28.2749 191.02C-32.0619 189.469 -36.1273 187.876 -40.4439 186.306C-43.295 190.157 -46.1055 194.044 -48.8486 198.033C-44.7843 199.109 -40.9624 200.231 -37.3874 201.324L-37.4008 201.355ZM-28.9121 204.138C-25.3592 205.369 -22.17 206.541 -19.3221 207.642C-16.1995 204.848 -13.0678 202.075 -9.87323 199.329C-12.9465 197.8 -16.4328 196.153 -20.22 194.472C-23.1353 197.65 -26.0418 200.85 -28.8896 204.129L-28.9121 204.138ZM-4.39788 214.197C-1.09892 212.03 2.23137 209.877 5.5708 207.747C3.83609 206.686 1.30161 205.198 -1.96959 203.438C-4.96258 205.973 -7.93749 208.553 -10.881 211.145C-7.76317 212.527 -5.58408 213.588 -4.39788 214.197ZM305.817 131.919C305.817 131.919 305.974 131.856 306.266 131.738C311.468 129.63 361.843 108.936 421.978 73.9952C450.019 57.7086 480.136 38.2994 508.807 16.287C504.398 13.3286 501.732 11.3233 500.914 10.7214C500.065 10.2358 499.211 9.80385 498.371 9.34055C466.923 28.0442 434.104 45.359 403.758 60.4016C342.581 90.709 291.511 111.685 282.138 115.482C281.129 115.891 280.613 116.1 280.613 116.1C280.613 116.1 278.685 116.881 275.088 118.312C264.285 122.637 238.485 132.986 205.007 146.549C163.883 163.21 111.175 184.719 60.4062 205.858C63.151 207.027 65.9092 208.165 68.6494 209.259C109.93 199.042 152.364 186.129 189.677 173.786C222.711 162.866 251.752 152.397 272.526 144.655C282.913 140.784 291.228 137.597 296.96 135.378C299.825 134.269 302.032 133.401 303.521 132.824C305.001 132.224 305.786 131.906 305.786 131.906L305.817 131.919ZM534.353 -13.1188C531.054 -10.9526 527.723 -8.79955 524.384 -6.66882C526.118 -5.60858 528.653 -4.12046 531.924 -2.36042C534.917 -4.89526 537.892 -7.47464 540.835 -10.0672C537.718 -11.4486 535.539 -12.5104 534.353 -13.1188ZM517.375 -1.28849C517.038 -1.41127 516.733 -1.52087 516.396 -1.64366C513.083 0.424366 509.762 2.47008 506.408 4.50264C507.654 5.45006 510.836 7.7646 515.726 10.943C518.89 8.44272 522.035 5.89788 525.15 3.33988C520.993 1.00518 518.355 -0.674266 517.366 -1.31076L517.375 -1.28849ZM506.402 -5.11365C503.604 -6.02825 500.77 -6.90239 497.954 -7.73201C495.317 -6.63778 492.689 -5.52129 490.03 -4.41797C492.779 -3.043 495.516 -1.63666 498.248 -0.1767C500.973 -1.82537 503.708 -3.45179 506.402 -5.11365ZM201.943 138.923C246.61 120.827 277.595 108.455 277.595 108.455C277.595 108.455 278.111 108.246 279.097 107.847C288.336 104.104 339.258 83.2143 400.143 53.0251C428.951 38.7611 460.004 22.3693 489.896 4.78834C486.567 3.07783 483.233 1.42096 479.85 -0.164133C426.865 21.9499 371.108 44.6946 328.034 62.1458C283.367 80.2419 252.382 92.6133 252.382 92.6133C252.382 92.6133 251.889 92.8132 250.902 93.2129C241.664 96.9557 190.741 117.845 129.856 148.035C101.048 162.299 69.9953 178.69 40.1031 196.271C43.4326 197.982 46.7663 199.639 50.1494 201.224C103.134 179.11 158.891 156.365 201.966 138.914L201.943 138.923ZM222.617 65.341L224.115 69.1676C224.115 69.1676 223.98 69.2221 223.689 69.3402C218.487 71.4477 168.112 92.1417 107.999 127.074C79.958 143.36 49.8409 162.769 21.1698 184.782C25.579 187.74 28.2446 189.746 29.0628 190.347C29.9121 190.833 30.7658 191.265 31.6061 191.728C63.0533 173.025 95.8726 155.71 126.219 140.667C187.396 110.36 238.466 89.3842 247.839 85.587C248.825 85.1873 249.341 84.9784 249.363 84.9693C249.363 84.9693 251.292 84.188 254.889 82.7567C265.692 78.4317 291.492 68.0828 324.97 54.5198C366.094 37.859 418.802 16.3498 469.571 -4.78897C466.826 -5.95852 464.068 -7.09672 461.328 -8.19037C420.047 2.02633 377.613 14.9396 340.3 27.2824C307.265 38.2027 278.225 48.6717 257.451 56.414C247.064 60.2851 238.749 63.4722 233.017 65.6906C230.151 66.7997 227.945 67.6678 226.456 68.2451C224.967 68.8224 224.191 69.1626 224.191 69.1626L222.648 65.3542L222.617 65.341ZM31.7607 201.259C29.0351 202.907 26.3006 204.534 23.6065 206.196C26.4046 207.11 29.2385 207.984 32.0545 208.814C34.6914 207.72 37.3194 206.603 39.9787 205.5C37.229 204.125 34.4926 202.719 31.7607 201.259ZM23.5775 196.588C22.3323 195.641 19.1498 193.326 14.2599 190.148C11.0962 192.648 7.95059 195.193 4.83646 197.751C8.99307 200.086 11.6313 201.765 12.62 202.402C12.9345 202.534 13.2622 202.634 13.5991 202.757C16.9117 200.689 20.2335 198.643 23.5866 196.611L23.5775 196.588ZM-3.02691 193.548C0.252932 190.819 3.55966 188.157 6.87559 185.517C3.41518 183.419 -0.548305 181.11 -4.94746 178.692C-8.07391 181.799 -11.1599 184.942 -14.2279 188.13C-10.0363 190.035 -6.28444 191.886 -3.02691 193.548ZM474.948 -11.4268C476.655 -10.6924 478.357 -9.90438 480.074 -9.14774C481.71 -9.8109 483.329 -10.5186 484.966 -11.1818C483.17 -11.6207 481.351 -12.0506 479.519 -12.4492C477.994 -12.0905 476.482 -11.7632 474.957 -11.4045L474.948 -11.4268ZM515.479 -10.7357C517.64 -12.1036 519.756 -13.4534 521.894 -14.8123C519.981 -15.0227 518.064 -15.1795 516.138 -15.3585C514.017 -14.4732 511.905 -13.5656 509.761 -12.6713C511.661 -12.0409 513.57 -11.3883 515.479 -10.7357ZM542.353 -18.4343C543.827 -17.7609 545.606 -16.9779 547.65 -16.1207C550.392 -18.6315 553.039 -21.1819 555.709 -23.7413C554.069 -24.2439 552.78 -24.6551 551.833 -24.997C548.704 -22.7963 545.544 -20.6087 542.344 -18.4565L542.353 -18.4343ZM556.158 -12.7747C558.768 -11.8097 561.602 -10.806 564.683 -9.7727C567.338 -12.9484 569.939 -16.1283 572.504 -19.3972C569.756 -19.995 567.223 -20.5764 564.974 -21.1687C562.075 -18.3352 559.137 -15.5372 556.158 -12.7747ZM578.104 -26.6439C580.342 -29.6248 582.517 -32.632 584.683 -35.6615C582.776 -35.796 581.043 -35.9496 579.418 -36.0949C576.896 -33.3623 574.357 -30.6742 571.755 -28.0124C573.744 -27.548 575.832 -27.0976 578.104 -26.6439ZM587.107 -24.9762C589.855 -24.5079 592.755 -24.0496 595.822 -23.6326C597.977 -27.332 600.115 -31.0759 602.172 -34.8908C599.389 -34.9301 596.817 -35.0288 594.375 -35.1285C592.003 -31.7045 589.591 -28.316 587.129 -24.9853L587.107 -24.9762ZM604.715 -22.4911C607.939 -22.1377 611.36 -21.8124 614.87 -21.5235C616.89 -25.9455 618.891 -30.4121 620.816 -35.0033C617.567 -34.9054 614.452 -34.8621 611.49 -34.8287C609.286 -30.6689 607.019 -26.5354 604.715 -22.4911ZM623.678 -20.9175C625.253 -20.8298 626.806 -20.7331 628.427 -20.6637C675.169 -18.6255 741.185 -24.6811 819.89 -56.5674C879.894 -80.8772 947.296 -120.24 1019.11 -182.546C953.156 -138.119 892.283 -106.741 837.951 -84.73C748.573 -48.5196 677.046 -37.6386 629.896 -35.3371C627.882 -30.4505 625.809 -25.644 623.678 -20.9175ZM624.228 -43.334C625.827 -47.3781 627.398 -51.4889 628.92 -55.6574C626.237 -55.1927 623.688 -54.7825 621.229 -54.4085C619.464 -50.5822 617.641 -46.8359 615.777 -43.1251C618.501 -43.1658 621.315 -43.2428 624.251 -43.3431L624.228 -43.334ZM638.27 -57.3196C636.66 -52.7261 634.99 -48.2126 633.271 -43.7569C679.573 -46.4144 748.774 -57.4941 834.879 -92.3782C891.161 -115.18 954.684 -148.201 1023.73 -195.673C973.148 -170.278 926.284 -149.295 883.5 -131.962C772.282 -86.9039 688.607 -66.5121 638.293 -57.3287L638.27 -57.3196ZM822.963 -48.9192C741.813 -16.0428 673.665 -10.1603 625.746 -12.5255C623.749 -12.6237 621.863 -12.7673 619.942 -12.8704C617.56 -7.86081 615.124 -2.98481 612.639 1.83345C614.008 2.05646 615.368 2.25722 616.738 2.48023C665.308 9.61128 733.09 8.62203 811.795 -23.2642C873.727 -48.3553 942.461 -92.6133 1013.91 -167.271C945.397 -109.592 880.868 -72.3528 822.949 -48.8878L822.963 -48.9192ZM611.121 -13.5746C607.301 -13.9195 603.646 -14.3058 600.158 -14.7333C597.586 -10.4504 594.924 -6.26079 592.235 -2.13793C596.025 -1.28809 599.968 -0.448187 604.089 0.319014C606.477 -4.22613 608.828 -8.86037 611.09 -13.5878L611.121 -13.5746ZM591.228 -15.9638C587.811 -16.4723 584.56 -17.022 581.516 -17.5776C578.777 -14.0306 576.01 -10.5504 573.172 -7.11888C576.495 -6.13189 580.002 -5.14167 583.752 -4.19776C586.289 -8.05161 588.79 -11.9945 591.228 -15.9638ZM567.396 -0.241654C564.4 3.2535 561.355 6.6909 558.27 10.0929C562.057 11.644 566.122 13.2379 570.439 14.8077C573.29 10.9562 576.1 7.06927 578.844 3.08004C574.779 2.00426 570.957 0.882179 567.382 -0.210302L567.396 -0.241654ZM558.907 -3.02501C555.354 -4.25611 552.165 -5.42711 549.317 -6.52897C546.194 -3.7342 543.063 -0.961725 539.868 1.7844C542.964 3.30444 546.428 4.96049 550.215 6.64112C553.13 3.46362 556.037 0.263846 558.884 -3.01592L558.907 -3.02501ZM533.031 7.58789C529.751 10.3167 526.444 12.9787 523.128 15.6185C526.589 17.7167 530.552 20.026 534.951 22.4439C538.087 19.3587 541.164 16.1935 544.232 13.006C540.04 11.1004 536.288 9.24976 533.031 7.58789ZM55.0562 212.562C53.3491 211.828 51.6464 211.04 49.9303 210.283C48.2934 210.947 46.6747 211.654 45.0378 212.317C46.8565 212.747 48.6528 213.186 50.4849 213.585C52.0102 213.226 53.5219 212.899 55.0472 212.54L55.0562 212.562ZM14.5248 211.871C12.3642 213.239 10.2483 214.589 8.11018 215.948C10.0227 216.158 11.9398 216.315 13.8657 216.494C15.9869 215.609 18.099 214.701 20.2426 213.807C18.3427 213.177 16.4337 212.524 14.5248 211.871ZM-12.3492 219.57C-13.8227 218.896 -15.6019 218.113 -17.6459 217.256C-20.3876 219.767 -23.035 222.318 -25.7047 224.877C-24.0654 225.38 -22.7763 225.791 -21.8285 226.133C-18.7002 223.932 -15.5404 221.744 -12.3401 219.592L-12.3492 219.57ZM-26.1538 213.91C-28.7636 212.945 -31.5979 211.942 -34.6791 210.908C-37.3341 214.084 -39.9353 217.264 -42.5003 220.533C-39.7522 221.131 -37.2196 221.712 -34.9697 222.304C-32.0716 219.471 -29.1328 216.673 -26.1538 213.91ZM-48.1003 227.78C-50.3383 230.76 -52.5133 233.768 -54.6794 236.797C-52.7715 236.932 -51.0388 237.085 -49.4137 237.231C-46.8924 234.498 -44.3529 231.81 -41.7507 229.148C-43.74 228.684 -45.8283 228.233 -48.1003 227.78ZM-57.1029 226.112C-59.8507 225.644 -62.7512 225.185 -65.8176 224.768C-67.9734 228.468 -70.1112 232.212 -72.1679 236.026C-69.385 236.066 -66.8128 236.164 -64.3709 236.264C-61.9992 232.84 -59.587 229.452 -57.1029 226.112ZM-74.7115 223.627C-77.9349 223.273 -81.3557 222.948 -84.8662 222.659C-86.8858 227.081 -88.8873 231.548 -90.8123 236.139C-87.5629 236.041 -84.4481 235.998 -81.4858 235.964C-79.2817 231.804 -77.0146 227.671 -74.7115 223.627ZM-94.2151 244.492C-95.8135 248.536 -97.3851 252.647 -98.907 256.815C-96.2239 256.351 -93.6753 255.94 -91.2164 255.566C-89.4515 251.74 -87.628 247.994 -85.7641 244.283C-88.4884 244.324 -91.3023 244.401 -94.2375 244.501L-94.2151 244.492ZM-111.295 267.409C-161.523 276.868 -242.963 297.236 -350.37 340.75C-395.149 358.892 -444.453 381.07 -497.876 408.159C-362.76 363.711 -259.213 328.71 -187.948 304.297C-157.825 293.986 -133.516 285.563 -114.983 279.118C-113.793 275.161 -112.576 271.272 -111.286 267.431L-111.295 267.409ZM-284.89 216.814C-203.404 183.802 -133.064 183.202 -83.1413 190.9C-81.5788 191.148 -80.0477 191.383 -78.5301 191.65C-75.8293 186.719 -73.0924 181.876 -70.279 177.159C-72.0619 176.688 -73.8581 176.249 -75.7083 175.806C-126.627 163.715 -196.829 159.955 -276.386 192.187C-339.53 217.768 -408.694 266.116 -478.765 351.336C-410.576 282.798 -344.76 241.07 -284.912 216.823L-284.89 216.814ZM-69.9944 193.196C-65.5985 194.06 -61.3687 194.965 -57.3496 195.929C-54.4903 191.711 -51.5499 187.564 -48.596 183.516C-52.8494 182.102 -57.3317 180.703 -62.0159 179.385C-64.7264 183.906 -67.4099 188.493 -69.9944 193.196ZM-43.4085 176.54C-40.311 172.459 -37.1548 168.458 -33.9627 164.546C-38.6437 162.527 -43.5985 160.542 -48.7418 158.607C-51.7129 163 -54.6482 167.482 -57.5157 172.066C-52.571 173.511 -47.8687 175.002 -43.3861 176.531L-43.4085 176.54ZM-35.265 179.437C-30.6339 181.139 -26.2989 182.883 -22.2962 184.58C-19.094 181.208 -15.8737 177.881 -12.604 174.612C-16.7961 172.447 -21.3206 170.236 -26.1592 168.022C-29.2395 171.759 -32.2703 175.553 -35.265 179.437ZM531.493 -21.9163C531.825 -21.8694 532.18 -21.8316 532.512 -21.7847C533.167 -22.2313 533.821 -22.6779 534.507 -23.1113C534.417 -23.075 534.332 -23.0923 534.233 -23.0782C533.314 -22.7058 532.403 -22.311 531.493 -21.9163ZM560.227 -31.0165C560.914 -30.8023 561.646 -30.6062 562.41 -30.397C564.712 -32.7039 567.014 -35.0107 569.253 -37.3439C569.114 -37.3653 568.997 -37.3958 568.858 -37.4172C566.039 -35.29 563.144 -33.1578 560.218 -31.0388L560.227 -31.0165ZM586.327 -43.8463C587.512 -43.7561 588.765 -43.693 590.08 -43.6036C591.709 -46.0265 593.306 -48.4627 594.885 -50.9433C593.912 -50.834 593.027 -50.761 592.175 -50.6749C590.254 -48.3929 588.311 -46.1019 586.327 -43.8463ZM599.708 -43.2265C601.849 -43.1605 604.103 -43.14 606.432 -43.1245C608.095 -46.365 609.731 -49.6723 611.304 -53.006C609.209 -52.7015 607.225 -52.4425 605.341 -52.1975C603.489 -49.1656 601.61 -46.2006 599.677 -43.2397L599.708 -43.2265ZM632.846 -82.5008C634.586 -83.1021 636.371 -83.7216 638.246 -84.3774C638.772 -86.172 639.266 -87.9798 639.774 -89.819C637.801 -88.631 635.973 -87.4752 634.283 -86.4276C633.818 -85.1247 633.332 -83.8128 632.846 -82.5008ZM814.845 -15.7364C733.359 17.2763 663.018 17.8763 613.096 10.1782C611.533 9.92972 610.002 9.69442 608.485 9.42775C605.784 14.3591 603.047 19.2014 600.234 23.9191C602.016 24.3895 603.813 24.8285 605.663 25.2716C656.582 37.3624 726.784 41.1226 806.341 8.89117C869.484 -16.6905 938.649 -65.0383 1008.72 -150.259C940.531 -81.7199 874.714 -39.9918 814.867 -15.7455L814.845 -15.7364ZM599.949 7.8819C595.553 7.01829 591.323 6.11338 587.304 5.14896C584.445 9.36677 581.504 13.5136 578.55 17.5624C582.804 18.9763 587.286 20.3753 591.97 21.6926C594.681 17.172 597.364 12.5847 599.949 7.8819ZM573.363 24.5383C570.265 28.6193 567.109 32.6202 563.917 36.5321C568.598 38.5506 573.553 40.536 578.696 42.471C581.668 38.0782 584.603 33.5964 587.47 29.0123C582.526 27.5672 577.823 26.0759 573.34 24.5474L573.363 24.5383ZM565.219 21.6409C560.579 19.917 556.253 18.1953 552.251 16.4983C549.048 19.8698 545.828 23.1967 542.581 26.4569C546.773 28.6216 551.298 30.8332 556.136 33.0472C559.216 29.3102 562.247 25.5156 565.242 21.6319L565.219 21.6409ZM-1.53853 222.994C-1.87077 222.947 -2.22542 222.909 -2.55765 222.863C-3.21203 223.309 -3.86635 223.756 -4.55217 224.189C-4.46248 224.153 -4.37719 224.17 -4.27848 224.156C-3.35913 223.784 -2.44885 223.389 -1.53853 222.994ZM-30.2724 232.094C-30.9596 231.88 -31.6915 231.684 -32.455 231.475C-34.7573 233.782 -37.0594 236.089 -39.2988 238.422C-39.1596 238.443 -39.0428 238.474 -38.9036 238.495C-36.0848 236.368 -33.1899 234.236 -30.2634 232.117L-30.2724 232.094ZM-56.3727 244.924C-57.5578 244.834 -58.8103 244.771 -60.1255 244.682C-61.7543 247.104 -63.3515 249.541 -64.9308 252.021C-63.9571 251.912 -63.0731 251.839 -62.2205 251.753C-60.2997 249.471 -58.3564 247.18 -56.3727 244.924ZM-69.7539 244.304C-71.895 244.238 -74.1481 244.218 -76.4776 244.202C-78.1406 247.443 -79.7765 250.75 -81.3495 254.084C-79.2541 253.779 -77.2707 253.52 -75.386 253.275C-73.5341 250.244 -71.6553 247.279 -69.7225 244.318L-69.7539 244.304ZM-102.891 283.579C-104.631 284.18 -106.416 284.799 -108.291 285.455C-108.817 287.25 -109.311 289.058 -109.819 290.897C-107.847 289.709 -106.018 288.553 -104.328 287.505C-103.864 286.203 -103.377 284.891 -102.891 283.579ZM-64.9477 153.013C-118.449 136.031 -191.407 127.657 -272.273 160.393C-336.202 186.293 -405.265 238.048 -473.464 332.206C-406.662 254.637 -340.526 209.253 -279.49 184.525C-196.794 151.022 -123.646 155.481 -71.2847 168.362C-69.4346 168.805 -67.6203 169.289 -65.815 169.75C-62.8446 164.969 -59.8383 160.276 -56.7553 155.709C-59.4323 154.771 -62.1542 153.851 -64.9567 152.99L-64.9477 153.013ZM211.112 -21.6242C189.25 -17.019 171.271 -11.9131 158.784 -7.94292C152.54 -5.95784 147.687 -4.27692 144.381 -3.09331C142.74 -2.50605 141.475 -2.01957 140.636 -1.70572C140.21 -1.53311 139.896 -1.40589 139.695 -1.32413C139.493 -1.24237 139.403 -1.20603 139.403 -1.20603L137.86 -5.01446L139.291 -1.16067L138.379 -3.66919L139.336 -1.17886C137.161 -0.297675 87.5796 20.1006 31.7768 68.3761C6.57936 90.1997 -19.8946 117.7 -43.8819 151.66C-38.4781 153.723 -33.3164 155.832 -28.451 157.983C-2.3208 127.122 26.002 101.673 52.6566 81.2549C110.842 36.7331 161.23 16.0077 164.428 14.6864L164.584 14.6228C164.741 14.5592 215.284 -5.65798 284.984 -18.7286C314.004 -24.1593 346.356 -28.3217 379.793 -29.2934C378.688 -29.4422 377.575 -29.6133 376.448 -29.7531C314.186 -37.9485 254.846 -30.8123 211.099 -21.5929L211.112 -21.6242ZM601.984 -62.8676C601.182 -61.817 600.327 -60.7706 599.504 -59.7109C599.8 -59.7531 600.127 -59.7821 600.446 -59.8334C601.072 -60.8649 601.658 -61.9319 602.275 -62.9857C602.185 -62.9493 602.073 -62.9039 602.006 -62.8767L601.984 -62.8676ZM680.112 -143.341C678.008 -140.933 676.051 -138.61 674.184 -136.324C696.582 -153.073 727.818 -172.235 769.48 -189.114C832.265 -214.55 918.633 -234.737 1033.58 -233.601C923.292 -252.362 842.711 -239.731 784.814 -216.275C734.228 -195.781 700.862 -166.993 680.103 -143.363L680.112 -143.341ZM594.952 48.123C648.452 65.1051 721.411 73.4784 802.278 40.7423C866.206 14.8427 935.247 -36.9032 1003.45 -131.062C936.635 -53.5145 870.507 -8.10836 809.494 16.6103C726.798 50.1135 653.65 45.6542 601.289 32.7736C599.439 32.3305 597.624 31.8469 595.819 31.3857C592.849 36.167 589.842 40.8592 586.759 45.4269C589.436 46.3647 592.149 47.262 594.961 48.1453L594.952 48.123ZM318.892 222.76C340.754 218.155 358.733 213.049 371.22 209.079C377.464 207.093 382.317 205.413 385.623 204.229C387.264 203.642 388.529 203.155 389.368 202.841C389.794 202.669 390.107 202.542 390.309 202.46C390.511 202.378 390.601 202.342 390.601 202.342L390.69 202.305C392.865 201.424 442.447 181.026 498.25 132.75C523.447 110.927 549.921 83.4264 573.908 49.4665C568.505 47.4038 563.343 45.2948 558.478 43.1435C532.347 74.0047 504.024 99.454 477.37 119.872C419.185 164.393 368.796 185.119 365.599 186.44L365.464 186.495C365.263 186.576 314.743 206.784 245.043 219.855C216.023 225.286 183.67 229.448 150.234 230.42C151.338 230.569 152.452 230.74 153.579 230.88C215.841 239.075 275.18 231.939 318.927 222.719L318.892 222.76ZM-71.9795 264.003C-71.1783 262.953 -70.3233 261.906 -69.4996 260.847C-69.7958 260.889 -70.1234 260.918 -70.4419 260.969C-71.0682 262.001 -71.6538 263.067 -72.271 264.121C-72.1813 264.085 -72.0692 264.04 -72.002 264.012L-71.9795 264.003ZM-150.108 344.476C-148.004 342.068 -146.047 339.746 -144.189 337.438C-166.587 354.186 -197.823 373.348 -239.485 390.227C-302.27 415.664 -388.638 435.85 -503.588 434.715C-393.297 453.475 -312.716 440.845 -254.819 417.389C-204.233 396.894 -170.867 368.106 -150.108 344.476Z" fill="url(#paint0_linear_4538_27909)"/>
</g>
</g>
<defs>
<linearGradient id="paint0_linear_4538_27909" x1="1072.19" y1="-226.506" x2="-542.271" y2="427.571" gradientUnits="userSpaceOnUse">
<stop offset="0.14" stop-color="#FFF200"/>
<stop offset="0.26" stop-color="#F58220"/>
<stop offset="0.3" stop-color="#F58220"/>
<stop offset="0.37" stop-color="#08B798"/>
<stop offset="0.65" stop-color="#00B49D"/>
<stop offset="0.7" stop-color="#F58220"/>
<stop offset="0.75" stop-color="#F58220"/>
<stop offset="1" stop-color="#C6168D"/>
</linearGradient>
</defs>
</svg>
